<?xml version="1.0" standalone="no"?><svg xmlns="http://www.w3.org/2000/svg" viewBox="0 0 1440 320"><path fill="#394359" fill-opacity="1" d="M0,224L30,192C60,160,120,96,180,90.7C240,85,300,139,360,138.7C420,139,480,85,540,85.3C600,85,660,139,720,165.3C780,192,840,192,900,170.7C960,149,1020,107,1080,106.7C1140,107,1200,149,1260,154.7C1320,160,1380,128,1410,112L1440,96L1440,0L1410,0C1380,0,1320,0,1260,0C1200,0,1140,0,1080,0C1020,0,960,0,900,0C840,0,780,0,720,0C660,0,600,0,540,0C480,0,420,0,360,0C300,0,240,0,180,0C120,0,60,0,30,0L0,0Z"></path></svg>