<svg id="Capa_1" enable-background="new 0 0 512 512" height="512" viewBox="0 0 512 512" width="512" xmlns="http://www.w3.org/2000/svg"><g><path d="m389.526 336.401-53.126 53.126c-4.023 4.023-10.546 4.023-14.569 0l-33.332-33.332 67.695-67.695 33.332 33.332c4.023 4.023 4.023 10.545 0 14.569z" fill="#2b4d66"/><path d="m354.551 354.551h57.441v57.441h-57.441z" fill="#4a80aa" transform="matrix(.707 -.707 .707 .707 -158.756 383.272)"/><path d="m512 448.577-.022 53.104c-.002 5.686-4.611 10.295-10.298 10.298l-53.103.021c-2.734.001-5.356-1.084-7.289-3.017l-64.27-64.27c-4.023-4.023-4.023-10.546 0-14.569l53.126-53.126c4.023-4.023 10.546-4.023 14.569 0l64.27 64.27c1.933 1.933 3.018 4.555 3.017 7.289z" fill="#dd636e"/><path d="m511.999 448.578-.025 40.831-97.111-97.111 15.28-15.28c4.023-4.023 10.546-4.023 14.569 0l64.27 64.27c1.933 1.932 3.019 4.555 3.017 7.29z" fill="#da4a54"/><circle cx="191.47" cy="191.47" fill="#dd636e" r="191.47"/><path d="m307.26 38.982c24.455 32.156 38.982 72.274 38.982 115.79 0 105.746-85.724 191.47-191.47 191.47-43.516 0-83.634-14.527-115.79-38.982 34.972 45.985 90.258 75.68 152.488 75.68 105.746 0 191.47-85.724 191.47-191.47 0-62.23-29.695-117.517-75.68-152.488z" fill="#da4a54"/><circle cx="191.47" cy="191.47" fill="#e4f6ff" r="140.411"/><path d="m276.262 79.553c17.878 23.561 28.494 52.935 28.494 84.792 0 77.547-62.864 140.411-140.411 140.411-31.857 0-61.231-10.616-84.792-28.494 25.641 33.791 66.227 55.619 111.917 55.619 77.547 0 140.411-62.864 140.411-140.411 0-45.69-21.828-86.276-55.619-111.917z" fill="#d3effb"/><g fill="#9dc6fb"><circle cx="191.47" cy="100.938" r="16.65"/><path d="m197.818 291.367h-12.695c-5.69 0-10.302-4.612-10.302-10.302v-119.877c0-5.69 4.612-10.302 10.302-10.302h12.695c5.69 0 10.302 4.612 10.302 10.302v119.877c-.001 5.69-4.613 10.302-10.302 10.302z"/></g></g></svg>